<!--
  Foxi – maskable Familienzeichen.

  Android bestimmt den Zuschnitt selbst. Das vollständige Zeichen liegt
  deshalb verkleinert im sicheren mittleren Bereich; Petrol füllt die ganze
  Fläche aus. Inhalt und Geometrie entsprechen `foxi.svg`.
-->
<svg xmlns="http://www.w3.org/2000/svg" viewBox="0 0 100 100" role="img" aria-label="Foxi Einkaufsliste">
  <title>Foxi Einkaufsliste</title>
  <rect width="100" height="100" fill="#0d9488"/>
  <g transform="translate(10 10) scale(0.8)">
    <path d="M26 22 L40 40 L24 46 Z" fill="#f97316"/>
    <path d="M74 22 L60 40 L76 46 Z" fill="#f97316"/>
    <path d="M29 26 L38 38 L28 42 Z" fill="#7c2d12"/>
    <path d="M71 26 L62 38 L72 42 Z" fill="#7c2d12"/>
    <path d="M50 32 C64 32 76 42 76 54 C76 66 64 80 50 80 C36 80 24 66 24 54 C24 42 36 32 50 32 Z" fill="#f97316"/>
    <path d="M30 52 C30 62 38 74 50 78 C42 78 28 68 27 56 Z" fill="#ffedd5"/>
    <path d="M70 52 C70 62 62 74 50 78 C58 78 72 68 73 56 Z" fill="#ffedd5"/>
    <path d="M50 58 C55 58 59 62 59 66 C59 72 54 77 50 77 C46 77 41 72 41 66 C41 62 45 58 50 58 Z" fill="#ffedd5"/>
    <circle cx="50" cy="66" r="4.2" fill="#431407"/>
    <circle cx="39" cy="52" r="3.4" fill="#431407"/>
    <circle cx="61" cy="52" r="3.4" fill="#431407"/>
    <g fill="#ffffff" opacity="0.95">
      <rect x="36" y="10" width="28" height="3.4" rx="1.7"/>
      <rect x="36" y="16" width="28" height="3.4" rx="1.7"/>
      <rect x="36" y="22" width="28" height="3.4" rx="1.7"/>
    </g>
  </g>
</svg>
